<?xml version="1.0" encoding="UTF-8" ?>
<!DOCTYPE svg PUBLIC "-//W3C//DTD SVG 1.1//EN" "http://www.w3.org/Graphics/SVG/1.1/DTD/svg11.dtd">
<svg width="2605pt" height="418pt" viewBox="0 0 2605 418" xmlns="http://www.w3.org/2000/svg">
  <g/>
  <path d="M928.75 52.5c4.95-.01 9.91 0 14.87-.01.01 104.21 0 208.42 0 312.63-4.96.01-9.91 0-14.87 0zm918.98 33.6c.45-1.87 2.44-2.8 4.25-2.71 5.29-.02 10.6-.06 15.91.02 2.38-.13 4.27 2.14 4.08 4.46.06 35.85.02 71.71.02 107.56 16.96-17.19 33.94-34.34 50.97-51.46 2.25-2.62 5.8-3.23 9.1-3.11 5.61.13 11.26-.23 16.87.19 3.05.62 2.47 4.72.64 6.39-17.87 17.72-35.84 35.34-53.74 53.03 19.15 19.74 38.49 39.29 57.67 59.01 2.06 1.61 2.82 6.14-.52 6.66-6.02.28-12.05.02-18.06.13-3.31.12-6.87-.6-9.15-3.16-17.92-18.68-35.86-37.34-53.77-56.03v54.03c.27 2.41-1.31 5.18-3.98 5.09-5.67.07-11.34.15-16.99-.05-2.57-.12-3.8-2.77-3.63-5.04-.06-55.37 0-110.75-.03-166.13.07-2.96-.28-5.97.36-8.88m-449.27 3.54c4.7-1.14 10.02-.93 14.26 1.6 9.15 5.61 8.5 21.73-1.51 26.1-5.7 2.29-12.89 2.1-17.86-1.78-8.44-6.86-6.07-23.34 5.11-25.92m717.02.05c6.44-1.75 14.62-.51 18.46 5.52 4.35 6.94 2.81 17.96-4.95 21.84-5.42 2.52-12.29 2.43-17.41-.73-9.58-6.21-7.65-23.85 3.9-26.63m-415.55 21.15c.05-2.3 1.54-4.8 4.06-4.93 4.3-.27 8.65-.3 12.97.02 2.09.14 3.64 2.13 3.52 4.19.07 10.25-.01 20.5.02 30.76 10.87.03 21.74-.07 32.6.04 2.32-.15 4.55 1.71 4.46 4.12.09 4.01.22 8.04-.11 12.04-.34 2.09-2.5 3.29-4.46 3.16-10.83.04-21.67-.02-32.5.02.05 23.9-.05 47.79.05 71.69.04 5.22 1.21 11.64 6.49 14.09 8.52 3.75 18.07 1.64 26.89.19 1.71-.43 4.19.1 4.44 2.2.43 4.03.45 8.16-.04 12.19-.42 3.05-3.64 4.25-6.22 4.89-9.18 2.41-18.83 3.03-28.27 2.09-8.34-.9-16.85-4.47-21.78-11.54-5.34-7.53-6.31-17.12-6.06-26.1.01-23.24.01-46.47 0-69.71-6.36-.07-12.72.14-19.07-.08-2.12-.09-3.69-2.07-3.62-4.11-.1-2.97-.24-5.97.16-8.93.3-2.24 2.67-3.14 4.65-3.4 6.18-.9 12.4-1.54 18.6-2.35 1.09-10.18 2.11-20.37 3.22-30.54m-403.44 26.97c17.37-2.12 36.58.69 50.05 12.69 13.83 11.97 19.53 30.71 20.01 48.5.81 19.51-3.07 40.85-17.37 55.17-12.52 13.08-31.69 17.1-49.17 15.56-14.47-.94-28.93-7.08-38.28-18.42-12.01-14.04-15.33-33.33-14.77-51.29.37-16.4 4.77-33.56 16.24-45.81 8.54-9.42 20.77-14.93 33.29-16.4m2.93 19.85c-6.85 1.09-13.44 4.46-17.83 9.91-5.31 6.48-7.7 14.8-8.8 22.97-1.17 9.46-1.11 19.11.4 28.53 1.48 8.85 4.79 17.97 11.79 23.95 7.12 6.13 17.04 7.73 26.14 6.88 7.83-.63 15.66-3.97 20.69-10.17 6.62-8.01 8.74-18.67 9.49-28.78.56-10.68.25-21.63-3.13-31.87-2.32-6.95-6.56-13.55-12.95-17.38-7.66-4.67-17.11-5.32-25.8-4.04m186.45-19.31c12.16-1.98 25.11-1.79 36.64 2.98 10.22 4.19 18.25 12.97 22.02 23.31 4.71 12.81 4.44 26.9 2.37 40.21-.2 2.48-2.28 4.44-4.82 4.11-25.93.09-51.87.01-77.8.04.32 10.12 2.08 20.85 8.54 29 5.49 7.05 14.32 10.52 22.96 11.68 12.41 1.61 25.14.32 37.11-3.28 3.34-.84 6.56-2.36 10.04-2.5 3.24.68 2.57 4.63 2.72 7.08-.24 3.62.95 8.7-3.05 10.69-8.81 4.52-18.73 6.4-28.48 7.65-18.18 1.9-38.35.32-53.15-11.51-12.93-10.24-18.64-26.88-20.01-42.82-1.49-18.17-.1-37.64 9.82-53.46 7.62-12.37 20.79-20.86 35.09-23.18m-10.73 25.79c-7.59 7.32-10.07 18.2-10.87 28.35 20.49.04 40.97-.03 61.46.03.48-8.78.36-18.26-4.47-25.95-3.85-6.3-11.06-9.8-18.24-10.47-9.79-1.03-20.66.85-27.88 8.04m711.98-10.55c15.63-14.26 38.75-20.5 59.08-13.71 14.33 4.73 24.75 17.38 29.62 31.32 5.33 15.42 5.72 32.22 3.38 48.24-2.79 18.03-12.56 36.16-29.35 44.58-19.74 9.4-44.95 5.38-60.98-9.45 0 19.17.01 38.33 0 57.5.23 2.3-1.22 4.99-3.76 4.99-5.71.12-11.43.14-17.13-.02-3.09-.06-3.97-3.51-3.73-6.01.03-55.03-.05-110.06.03-165.09-.32-2.7 1.81-5.32 4.65-5.03 4.65.13 9.45-.57 14.02.48 4.24 2.34 3.02 8.16 4.17 12.2m1.76 14.79c-.03 22.96.02 45.91-.02 68.87 8.49 6.27 18.46 10.96 29.11 11.73 8.74.68 18.23-1.01 24.97-7 6.69-5.84 9.86-14.62 11.32-23.17 1.68-10.55 1.62-21.38-.04-31.93-1.51-8.89-4.85-18.16-12.24-23.83-7.35-5.69-17.18-6.62-26.13-5.62-9.8 1.06-19.01 5.26-26.97 10.95m143.28-26.03c11.12-4.93 23.65-5.92 35.65-4.66 12.87 1.26 25.53 7.89 32.31 19.17 8.69 14.28 8.68 31.95 6.2 47.98-.18 2.66-2.55 4.46-5.15 4.14-25.82.05-51.65 0-77.47.03.31 10.03 2.05 20.66 8.39 28.79 5.04 6.57 13.01 10.17 21.02 11.55 14.97 2.53 30.36.19 44.65-4.59 2.21-.74 5.92-1.86 6.91 1.18.6 3.91.39 7.96.14 11.9-.55 3.8-4.92 4.84-7.89 6.16-17.23 6.01-36.14 7.75-54.07 4.14-14.05-2.82-27.16-11.33-34.06-24.07-6.7-11.81-8.73-25.63-8.92-39.03-.16-14.17 1.9-28.82 9-41.29 5.27-9.33 13.45-17.07 23.29-21.4m1.68 22.49c-7.03 7.37-9.38 17.8-10.15 27.65q30.735.015 61.47 0c.58-9.24.27-19.39-5.36-27.19-4.7-6.58-13.03-9.39-20.84-9.43-9.07-.36-18.76 2.17-25.12 8.97m-1286.76-11.22c10.73-9.52 24.51-15.94 38.98-16.37 12.06-.65 24.69 2.47 33.98 10.48 12.12 10.22 18.12 25.96 19.77 41.4 1.69 16.58.63 33.97-6.35 49.32-5.73 12.57-16.02 23.59-29.38 27.93-18.76 6.05-40.66 1.69-55.21-11.76 0 19.15.02 38.3-.01 57.44.2 2.32-1.22 4.99-3.79 5-5.7.12-11.41.13-17.1-.01-2.55-.05-3.95-2.7-3.71-5-.01-55.36-.02-110.72 0-166.08-.36-2.73 1.8-5.36 4.66-5.06 4.63.13 9.4-.55 13.96.45 4.27 2.37 3.07 8.2 4.2 12.26m1.8 14.74c-.03 22.97.02 45.94-.02 68.91 10.31 7.71 23.12 12.85 36.17 11.7 8.12-.49 16.26-4.04 21.29-10.59 6.69-8.59 8.51-19.83 9.01-30.42.28-12.27-.23-25.23-6.14-36.29-3.65-6.98-10.51-12.05-18.2-13.64-14.71-3.11-30.17 1.56-42.11 10.33m568.71-29.63c12.51-1.46 25.44-.17 37.21 4.44 2.04.74 3.92 2.45 4.04 4.76.19 3.99.48 8.08-.22 12.03-.73 2.59-3.74 2.2-5.74 1.6-11.43-3.37-23.72-4.38-35.42-1.79-7.35 1.65-14.41 5.72-18.42 12.26-5.73 9.19-6.66 20.37-6.78 30.95 0 10.45.73 21.44 5.99 30.74 3.7 6.66 10.33 11.33 17.63 13.27 12.35 3.39 25.51 1.85 37.65-1.74 1.94-.56 5.02-1.36 5.94 1.17.96 3.08.4 6.42.54 9.61.08 2.56-.41 5.65-3.02 6.83-9.25 4.61-19.75 6.08-29.98 6.15-12.71.04-25.89-2.37-36.58-9.6-13.81-9.08-21.03-25.35-22.85-41.34-2.06-18.62-.91-38.79 9.23-55.1 8.58-14.2 24.5-22.68 40.78-24.24m-408.19 4.7c7.39-3.28 15.69-4.07 23.68-3.26 2.02.08 4.19 1.56 4.12 3.78.08 5.04.13 10.08-.03 15.11.01 2.18-2.15 3.6-4.16 3.44-4.36 0-8.7-.85-13.05-.37-10.87.59-21.52 4.64-29.84 11.67.02 28.74-.01 57.47.01 86.2-.09 1.67.04 3.59-1.16 4.94-1.51 1.67-3.95 1.23-5.94 1.33-4.68-.11-9.35.14-14.01-.12-2.54-.17-3.74-2.85-3.52-5.1V145.94c-.22-2.23 1.08-4.74 3.53-4.93 4.65-.24 9.34-.25 14 .02 2.13.12 3.69 1.95 3.94 4 .78 4.71 1.17 9.48 1.84 14.21 6.04-6.22 12.53-12.32 20.59-15.81m1264.85.82c7.95-3.99 17.13-5.04 25.9-4.01 1.85.19 3.69 1.64 3.66 3.65.1 5.07.14 10.16-.02 15.22-.19 3.38-4.17 3.74-6.75 3.33-14.24-1.81-29.29 1.98-40.3 11.35 0 29.05.04 58.11-.02 87.16.18 2.36-1.12 5.16-3.78 5.22-5.68.15-11.37.14-17.03.01-2.66-.02-4.08-2.76-3.79-5.11 0-38.39-.01-76.78.01-115.17-.29-2.36 1.28-4.9 3.84-4.93 4.33-.18 8.68-.16 13.03-.02 2.26-.07 4.22 1.65 4.54 3.88.83 4.77 1.22 9.62 1.9 14.42 5.58-5.77 11.53-11.42 18.81-15m-1080.19-3.05c5.61-.7 11.33-.2 16.99-.3 2.87-.36 5.24 2.24 4.82 5.06.01 46.69-.01 93.39.01 140.08.15 8.43-1.21 17.43-6.6 24.21-5.05 6.48-13.35 9.43-21.34 9.8-6.97.22-14.15.02-20.83-2.14-2.86-.96-3.59-4.24-3.48-6.9.1-3.23-.47-6.61.54-9.73 1.24-2.55 4.46-1.66 6.72-1.5 5.67.52 12.1 1.41 17.12-1.93 3.56-2.8 3.32-7.76 3.25-11.84-.02-46.37-.01-92.74-.01-139.11-.08-2.17.33-5.02 2.81-5.7m576.7 4.81c-.19-2.13.93-4.56 3.24-4.94 4.64-.46 9.34-.06 14.02-.22 1.96.1 4.29-.29 5.93 1.12 1.44 1.24 1.36 3.32 1.44 5.06-.03 25.99-.01 51.99-.02 77.99.08 6.42.96 13.31 4.99 18.56 3.44 4.45 9.22 6.21 14.64 6.47 13.48.63 26.56-4.46 37.71-11.71.08-30.44.02-60.88.03-91.32.04-1.7-.05-3.74 1.38-4.98 1.56-1.46 3.89-1.08 5.88-1.19 4.66.14 9.34-.21 14.01.19 2.36.28 3.54 2.77 3.36 4.96.02 38.35 0 76.7 0 115.06.35 2.57-1.49 5.38-4.29 5.16-4.87-.19-9.92.66-14.65-.55-3.64-2.97-2.72-8.52-4.14-12.63-13.07 9.74-28.77 16.57-45.24 16.94-9.94.36-20.7-1.8-28.02-8.99-7.53-7.14-10.21-17.88-10.27-27.95q-.03-43.515 0-87.03m140.36-4.78c5.89-.74 11.93-.28 17.88-.27 2.64-.08 4.3 2.54 4.09 4.97.09 38.01 0 76.03.04 114.05.12 2.37-.36 5.57-3.16 6.1-5.98.33-11.99.21-17.96.07-2.56-.18-3.74-2.88-3.52-5.14.01-38.35 0-76.7.01-115.05-.14-1.91.62-4.11 2.62-4.73m-1967.28 1.56c12.44-1.75 25.61-.84 37.09 4.58 7.55 3.56 13.93 10 16.46 18.06 1.84 5.63 2.2 11.6 2.24 17.49.01 15.36-.04 30.72.01 46.08.05 5.71 2.17 11.25 5.61 15.76 1.72 2.76 5.34 5.6 3.71 9.21-5.66 5.34-11.8 10.19-17.61 15.38-1.63 1.7-4.6 2.45-6.53.85-5.11-4.02-9.14-9.24-12.61-14.68-6 5.86-12.56 11.63-20.73 14.16-7.27 2.23-15.04 2.61-22.56 1.79-9.3-1.12-18.31-6.2-23.08-14.41-5.59-9.61-6.27-21.53-3.66-32.16 2.8-11.43 11.52-20.83 22.23-25.42 13.63-5.88 28.71-6.4 43.25-8.11.05-6.44.68-13.55-2.8-19.28-7.44-9.57-24.92-7.01-29.7 4-1.22 2.67-1.05 6.52-4.22 7.81-7.35-.31-14.66-1.51-22-2.17-2.47.1-4.98-2.06-4.4-4.67 1.28-7.84 4.87-15.39 10.5-21.06 7.59-7.74 18.23-11.7 28.8-13.21m-.26 71.7c-5.25 2.88-8.74 8.44-9.36 14.37-.89 6.58.53 14.71 6.76 18.31 7.28 4.17 16.64.28 20.98-6.36 6.59-8.95 5.68-20.58 5.66-31.09-8.18.02-16.77.67-24.04 4.77m270.74-60.09c7.83-7.06 18.24-10.52 28.56-11.8 12-1.47 24.63-.45 35.66 4.78 7.69 3.6 14.13 10.23 16.58 18.46 2.86 9.42 1.96 19.39 2.13 29.09.05 11.83-.1 23.65.07 35.47.2 6.91 4.12 12.82 8.23 18.07 1.37 1.69 2.25 4.55.37 6.21-5.73 5-11.54 9.92-17.27 14.92-1.73 1.68-4.82 2.08-6.62.31-4.94-4.03-8.87-9.14-12.29-14.47-6.27 6.51-13.63 12.53-22.56 14.79-6.6 1.65-13.53 2.01-20.29 1.29-8.83-.98-17.45-5.47-22.46-12.93-6.23-9.18-7.16-21.04-5.14-31.69 2.31-12.05 11.06-22.28 22.19-27.19 13.75-6.1 29.05-6.61 43.77-8.33.15-6.34.56-13.23-2.55-18.97-7.64-10.53-27.21-7.07-30.59 5.57-.66 2.33-1.29 5.6-4.18 5.98-7.39-.62-14.75-1.53-22.12-2.34-2.28-.09-4.23-2.35-3.66-4.64 1.4-8.58 5.62-16.79 12.17-22.58m25.18 61.18c-5.32 3.6-7.97 10.12-7.9 16.41-.21 5.97 1.96 12.9 7.76 15.6 7.34 3.52 16.15-.5 20.34-6.98 6.45-8.94 5.53-20.45 5.55-30.88-8.8.03-18.28.72-25.75 5.85m-171.53-67.44c8.45-5.64 19.63-6.37 29.13-3.21 8.86 3.04 14.44 11.25 18.15 19.41 3.73-9.91 12.28-17.96 22.73-20.23 13.54-3.45 29.7 1.79 36.65 14.4 5.41 10.28 3.97 22.31 4.01 33.49-.06 24.66.02 49.31-.04 73.96.19 2.5-2.21 4.49-4.62 4.28-7.35.02-14.7.03-22.05-.01-2.79.23-4.99-2.45-4.56-5.14.04-24.4-.08-48.8.11-73.19-.2-5.71.05-12.47-4.57-16.65-5.76-4.52-14.92-3.56-19.82 1.85-4.78 4.97-4.86 12.37-5.19 18.84-.09 23.35.04 46.71-.06 70.07.12 2.57-2.44 4.51-4.89 4.23-7.31.01-14.62.05-21.94-.02-2.31.17-4.55-1.86-4.37-4.22-.05-24.36 0-48.72-.02-73.08-.16-5.66-.56-11.8-4.07-16.49-5.52-6.65-17.82-5.44-21.9 2.23-3.42 6.18-3.42 13.49-3.64 20.36-.05 22.37.04 44.74-.04 67.11.09 2.14-1.81 4.11-3.95 4.08-7.68.08-15.36.07-23.04 0-2.71.15-4.63-2.63-4.23-5.16.02-38.36-.03-76.71.02-115.07-.17-2.3 1.85-4.52 4.21-4.34 7.01-.04 14.02-.03 21.03-.01 2.44-.32 4.74 1.91 4.48 4.36.07 5.08-.05 10.15.04 15.23 2.66-6.58 6.38-13.08 12.44-17.08m395.56-4.35c13.35-2.15 27.86.62 38.5 9.25 11.86 9.44 18.25 24.18 20.7 38.83 2.96 17.99 1.56 37.28-7.04 53.62-5.94 11.46-16.06 21.04-28.51 24.93-14.51 4.53-31.41 2.46-43.58-6.97-12.51-9.62-19.07-25.06-21.43-40.31-2.63-18.27-1.1-37.78 7.57-54.33 6.66-12.92 19.24-22.92 33.79-25.02m4 24c-3.65 1.2-6.5 4.12-8.25 7.47-3.88 7.61-4.36 16.36-4.63 24.74-.05 11.34-.29 22.91 2.7 33.95 1.45 5.07 3.89 10.38 8.67 13.1 5.91 3.13 13.91 1.22 17.81-4.23 5-6.86 5.87-15.69 6.46-23.9.41-11.47.49-23.06-1.59-34.39-.98-4.58-2.05-9.45-5.22-13.07-3.88-4.38-10.55-5.37-15.95-3.67m117.67-20.53c7.95-4.75 17.94-5.1 26.74-2.81 9.01 2.45 16.5 9.67 19.33 18.56 2.92 9.02 2.95 18.62 3.11 28.01-.02 24.99.04 49.98-.03 74.97.13 2.34-2.09 4.35-4.37 4.23-7.34.08-14.68.02-22.01.02-2.4.3-5.11-1.57-4.83-4.17-.05-23.68.01-47.37-.03-71.06-.24-6.47-.58-13.51-4.48-18.97-2.79-3.87-8.14-4.78-12.54-3.75-4.49 1.18-8.13 4.68-10.15 8.78-2.84 6.19-3.57 13.1-3.68 19.85-.04 21.69.04 43.39-.04 65.08.13 2.26-1.93 4.32-4.18 4.21-7.69.06-15.39.09-23.07-.01-2.18.02-4.06-2-3.95-4.15-.04-38.71-.03-77.43 0-116.15-.18-2.19 1.74-4.33 3.97-4.25 7.02-.07 14.04-.03 21.06-.02 1.81-.19 3.52.86 4.35 2.47.28 6.32-.04 12.67.16 19 3.25-7.58 7.33-15.44 14.64-19.84m-260.4 1.65c.02-2.14 2.21-3.76 4.27-3.63 24.67-.06 49.34-.02 74.01-.03 2.23-.25 4.69 1.23 4.83 3.62.21 4.74.06 9.5.08 14.25.04 3.65-2.5 6.59-4.38 9.48-13.29 18.9-26.53 37.84-39.78 56.77 14.61-.25 29.71 1.95 42.57 9.26 2.68 1.38 3.94 4.47 3.84 7.37-.01 5.68.09 11.36-.05 17.04-.03 2.16-1.96 4.23-4.17 4.14-2.05-.59-3.88-1.71-5.81-2.56-23.21-10.42-51.16-9.83-73.75 1.96-3 2.19-6.66-1.3-5.97-4.52.33-7.62-.72-15.38.69-22.91.82-3.35 3.08-6.03 4.99-8.8 13.91-19.95 27.81-39.9 41.72-59.85-12.93-.04-25.86.07-38.78-.04-2.42.13-4.7-1.97-4.35-4.46-.01-5.7-.08-11.4.04-17.09m25.63 127.69c11.61-1.77 23.66-1.89 35.09 1.03 3.24.85 7.38 2.36 7.49 6.35 1.08 11.25-1.91 22.48-5.8 32.94-4.15 10.67-10.21 20.84-18.9 28.43-1.44 1.24-3.34 2.57-5.33 1.83-1.57-.97-1.13-2.95-.54-4.34 4.38-11.04 8.8-22.14 11.4-33.75.81-4.14 1.67-8.5.56-12.65-1.28-3.8-5.8-4.57-9.24-5.18-13.74-1.68-27.57.33-41.24 1.79-1.43.28-3.87-.12-3.68-2.06-.17-1.77 1.38-3.03 2.66-3.97 8.15-5.66 17.8-8.81 27.53-10.42"/>
  <path d="M206.17 283.17c2.93-.76 5.33 1.68 7.79 2.85 57.65 32.49 123.94 49 190.04 48.97 49.74-.42 99.39-10.66 145.24-29.95 3.31-1.74 8.28-.79 9.59 3.04 1.04 3.24-1.44 6.09-4 7.69-29.52 21.19-64.24 34.24-99.67 41.51-51.28 10.57-105.41 6.73-154.71-10.88-35-12.48-67.5-31.92-95-56.91-2.11-1.6-2.11-5.54.72-6.32"/>
</svg>
