<svg width="37" height="36" viewBox="0 0 37 36" fill="none" xmlns="http://www.w3.org/2000/svg">
<g clip-path="url(#clip0_129_638)">
<path d="M31.5806 6.91481C30.8129 6.14832 29.9013 5.54028 28.898 5.12543C27.8948 4.71059 26.8194 4.49707 25.7334 4.49707C24.6474 4.49707 23.572 4.71059 22.5688 5.12543C21.5655 5.54028 20.6539 6.14832 19.8862 6.91481L18.2929 8.50481L16.6995 6.91481C15.1488 5.36727 13.0455 4.49787 10.8523 4.49787C8.6592 4.49787 6.5559 5.36727 5.00512 6.91481C3.45435 8.46235 2.58313 10.5613 2.58313 12.7498C2.58313 14.9384 3.45435 17.0373 5.00512 18.5848L18.2929 31.8448L31.5806 18.5848C32.3487 17.8187 32.958 16.909 33.3737 15.9078C33.7894 14.9067 34.0034 13.8335 34.0034 12.7498C34.0034 11.6661 33.7894 10.593 33.3737 9.59178C32.958 8.59059 32.3487 7.68094 31.5806 6.91481Z" stroke="#1E1E1E" stroke-width="4" stroke-linecap="round" stroke-linejoin="round"/>
</g>
<defs>
<clipPath id="clip0_129_638">
<rect width="36.0753" height="36" fill="white" transform="translate(0.255249)"/>
</clipPath>
</defs>
</svg>
