<svg width="49" height="48" viewBox="0 0 49 48" fill="none" xmlns="http://www.w3.org/2000/svg">
<path d="M10.8641 42C9.76178 42 8.80979 41.6167 8.00812 40.85C7.23985 40.05 6.85571 39.1 6.85571 38V10C6.85571 8.9 7.23985 7.96667 8.00812 7.2C8.80979 6.4 9.76178 6 10.8641 6H38.9227C40.025 6 40.9602 6.4 41.7285 7.2C42.5302 7.96667 42.931 8.9 42.931 10V38C42.931 39.1 42.5302 40.05 41.7285 40.85C40.9602 41.6167 40.025 42 38.9227 42H10.8641ZM10.8641 38H38.9227V10H10.8641V38ZM12.8683 34H36.9185L29.4028 24L23.3902 32L18.8808 26L12.8683 34ZM10.8641 38V10V38Z" fill="white"/>
</svg>
